<svg width="200" height="200" viewBox="0 0 200 200" xmlns="http://www.w3.org/2000/svg">
  <!-- Hexagon Background -->
  <!-- <path d="M100 10 L178 55 L178 145 L100 190 L22 145 L22 55 Z" fill="#DAA520" stroke="black" stroke-width="2"/> -->
  
  <!-- Wheat Stalks -->
  <!-- <g transform="translate(100, 100) rotate(-15) translate(-100, -100)">
    <path d="M100 160 Q105 100 100 50" stroke="#F5DEB3" stroke-width="4" fill="none"/>
    <ellipse cx="100" cy="50" rx="5" ry="12" fill="#F5DEB3"/>
    <ellipse cx="95" cy="65" rx="5" ry="10" fill="#F5DEB3" transform="rotate(-30 95 65)"/>
    <ellipse cx="105" cy="65" rx="5" ry="10" fill="#F5DEB3" transform="rotate(30 105 65)"/>
    <ellipse cx="95" cy="80" rx="5" ry="10" fill="#F5DEB3" transform="rotate(-30 95 80)"/>
    <ellipse cx="105" cy="80" rx="5" ry="10" fill="#F5DEB3" transform="rotate(30 105 80)"/>
  </g> -->
  
  <!-- <g transform="translate(100, 100) rotate(15) translate(-100, -100)">
      <path d="M100 160 Q105 100 100 60" stroke="#F5DEB3" stroke-width="4" fill="none"/>
      <ellipse cx="100" cy="60" rx="4" ry="10" fill="#F5DEB3"/>
  </g> -->

  <!-- Wheat Sheaf -->
  <g filter="url(#shadow)" transform="translate(60, 30)">
    <!-- Stalk -->
     <path d="M40 120 Q40 90 20 60" stroke="#F57F17" stroke-width="4" fill="none"/>
     <path d="M40 120 Q40 90 60 60" stroke="#F57F17" stroke-width="4" fill="none"/>
     <path d="M40 120 L40 50" stroke="#F57F17" stroke-width="4" fill="none"/>

    <!-- Grains Left -->
    <ellipse cx="20" cy="60" rx="8" ry="15" fill="#FBC02D" transform="rotate(-30 20 60)"/>
    <ellipse cx="25" cy="75" rx="8" ry="15" fill="#FDD835" transform="rotate(-30 25 75)"/>
    <ellipse cx="30" cy="90" rx="8" ry="15" fill="#FBC02D" transform="rotate(-30 30 90)"/>

    <!-- Grains Right -->
    <ellipse cx="60" cy="60" rx="8" ry="15" fill="#FBC02D" transform="rotate(30 60 60)"/>
    <ellipse cx="55" cy="75" rx="8" ry="15" fill="#FDD835" transform="rotate(30 55 75)"/>
    <ellipse cx="50" cy="90" rx="8" ry="15" fill="#FBC02D" transform="rotate(30 50 90)"/>

    <!-- Grains Center -->
    <ellipse cx="40" cy="50" rx="8" ry="15" fill="#FFEE58"/>
    <ellipse cx="40" cy="70" rx="8" ry="15" fill="#Fdd835"/>
    <ellipse cx="40" cy="90" rx="8" ry="15" fill="#FBC02D"/>
    
    <!-- Tie -->
    <rect x="35" y="110" width="10" height="5" fill="#E65100"/>
  </g>
</svg>