<svg width="200" height="200" viewBox="0 0 200 200" xmlns="http://www.w3.org/2000/svg">
  <!-- Hexagon Background -->
  <!-- <path d="M100 10 L178 55 L178 145 L100 190 L22 145 L22 55 Z" fill="#FF7043" stroke="black" stroke-width="2"/> -->
  
  <!-- Hills / Bricks -->
  <!-- <rect x="60" y="120" width="30" height="15" fill="#8D6E63" stroke="#5D4037" stroke-width="1"/> -->
  <!-- <rect x="95" y="120" width="30" height="15" fill="#8D6E63" stroke="#5D4037" stroke-width="1"/> -->
  <!-- <rect x="130" y="120" width="30" height="15" fill="#8D6E63" stroke="#5D4037" stroke-width="1"/> -->
  
  <!-- <rect x="75" y="105" width="30" height="15" fill="#8D6E63" stroke="#5D4037" stroke-width="1"/> -->
  <!-- <rect x="110" y="105" width="30" height="15" fill="#8D6E63" stroke="#5D4037" stroke-width="1"/> -->
  
  <!-- <rect x="92" y="90" width="30" height="15" fill="#8D6E63" stroke="#5D4037" stroke-width="1"/> -->

  <!-- Geometric Brick Stack -->
  <g filter="url(#shadow)" transform="translate(50, 60) scale(1)">
    <!-- Bottom Row -->
    <rect x="0" y="40" width="45" height="25" fill="#BF360C" rx="2"/>
    <rect x="50" y="40" width="45" height="25" fill="#D84315" rx="2"/>
    
    <!-- Middle Row -->
    <rect x="25" y="10" width="45" height="25" fill="#E64A19" rx="2"/>
    
    <!-- Top loose brick -->
    <rect x="15" y="-20" width="45" height="25" fill="#F4511E" transform="rotate(-10 37.5 -7.5)" rx="2"/>

    <!-- Mortar/Highlights -->
    <rect x="5" y="42" width="35" height="5" fill="#FF8A65" opacity="0.3"/>
    <rect x="55" y="42" width="35" height="5" fill="#FF8A65" opacity="0.3"/>
    <rect x="30" y="12" width="35" height="5" fill="#FFAB91" opacity="0.3"/>
  </g>
</svg>