<svg width="100%" height="100%" viewBox="0 0 24 24" fill="none" xmlns="http://www.w3.org/2000/svg">
  <!-- City: A grander structure with a tower -->
  <path d="M4 12V19C4 20.1 4.9 21 6 21H18C19.1 21 20 20.1 20 19V9L16 4L12 9V12L8 9L4 12Z" fill="currentColor"/>
  
  <!-- Highlight on roofs -->
  <path d="M16 4L20 9V11L16 6L12 11V9L16 4ZM8 9L12 12V14L8 11L4 14V12L8 9Z" fill="white" fill-opacity="0.2"/>

  <!-- Shadow on bottom -->
  <path d="M4 19V17H20V19C20 20.1 19.1 21 18 21H6C4.9 21 4 20.1 4 19Z" fill="black" fill-opacity="0.2"/>
</svg>
