<svg width="100%" height="100%" viewBox="0 0 24 24" fill="none" xmlns="http://www.w3.org/2000/svg">
  <!-- Road: A chunky, rounded plank -->
  <rect x="2" y="8" width="20" height="8" rx="4" fill="currentColor"/>
  <!-- Highlight/Bevel for 3D feel -->
  <path d="M4 10H20C21.1046 10 22 10.8954 22 12V12C22 9.79086 20.2091 8 18 8H6C3.79086 8 2 9.79086 2 12V12C2 10.8954 2.89543 10 4 10Z" fill="white" fill-opacity="0.2"/>
  <path d="M4 14H20C21.1046 14 22 13.1046 22 12V12C22 14.2091 20.2091 16 18 16H6C3.79086 16 2 14.2091 2 12V12C2 13.1046 2.89543 14 4 14Z" fill="black" fill-opacity="0.2"/>
</svg>
