<svg width="100%" height="100%" viewBox="0 0 24 24" fill="none" xmlns="http://www.w3.org/2000/svg">
  <!-- Robber: A mysterious, hooded pawn figure, distinctively dark -->
  
  <!-- Base Body: Heavy, grounded shape -->
  <path fill-rule="evenodd" clip-rule="evenodd" d="M12 2C9.23858 2 7 4.23858 7 7C7 8.95679 8.12548 10.6559 9.77123 11.479C9.553 14.2869 7.8286 16.5912 6.13605 18.0673C5.74828 18.4055 5.53982 18.9056 5.56708 19.4187C5.59434 19.9318 5.85499 20.4086 6.28625 20.7303C7.81745 21.8727 9.85196 22.5 12 22.5C14.148 22.5 16.1825 21.8727 17.7137 20.7303C18.145 20.4086 18.4057 19.9318 18.4329 19.4187C18.4602 18.9056 18.2517 18.4055 17.8639 18.0673C16.1714 16.5912 14.447 14.2869 14.2288 11.479C15.8745 10.6559 17 8.95679 17 7C17 4.23858 14.7614 2 12 2Z" fill="currentColor"/>

  <!-- Cowl/Hood Shadow: Giving it a 'face' without a face -->
  <path d="M12 4C10.5 4 9.2 4.8 8.5 6C9 7.5 10.5 8.5 12 8.5C13.5 8.5 15 7.5 15.5 6C14.8 4.8 13.5 4 12 4Z" fill="#1A1A1A" fill-opacity="0.4"/>

  <!-- Left Highlight: Rim lighting for 3D effect -->
  <path d="M8 7C8 5.4 9 4.1 10.5 3.3C9.2 3.8 8.2 5 8.2 6.5C8.2 7.8 8.8 8.9 9.8 9.6C9.2 9 8.6 8.1 8.3 7H8Z" fill="white" fill-opacity="0.2"/>
  
  <!-- Shoulder/Body Highlight -->
  <path d="M10.2 12C10.2 12 9.5 14 8 16L7 17C8.5 16 9.8 14 10.2 12Z" fill="white" fill-opacity="0.1"/>

  <!-- Base Shadow: Grounding the piece -->
  <path d="M6.3 20.7C7.8 21.8 9.8 22.5 12 22.5C14.2 22.5 16.2 21.8 17.7 20.7L18.4 19.4H5.6L6.3 20.7Z" fill="black" fill-opacity="0.3"/>
</svg>
