<svg width="100%" height="100%" viewBox="0 0 24 24" fill="none" xmlns="http://www.w3.org/2000/svg">
  <!-- Town: A cute, rounded house -->
  <path d="M12 3.5L4.5 9.5C4.18 9.756 4 10.15 4 10.56V19C4 20.1 4.9 21 6 21H18C19.1 21 20 20.1 20 19V10.56C20 10.15 19.82 9.756 19.5 9.5L12 3.5Z" fill="currentColor"/>
  
  <!-- Highlight on roof -->
  <path d="M12 3.5L19.5 9.5C19.82 9.756 20 10.15 20 10.56V12L12 5.5L4 12V10.56C4 10.15 4.18 9.756 4.5 9.5L12 3.5Z" fill="white" fill-opacity="0.2"/>

  <!-- Shadow on bottom -->
  <path d="M4 19V17H20V19C20 20.1 19.1 21 18 21H6C4.9 21 4 20.1 4 19Z" fill="black" fill-opacity="0.2"/>
</svg>
